<?xml version="1.0" standalone="no"?><!DOCTYPE svg PUBLIC "-//W3C//DTD SVG 1.1//EN" "http://www.w3.org/Graphics/SVG/1.1/DTD/svg11.dtd"><svg t="1675996203385" class="icon" viewBox="0 0 1024 1024" version="1.1" xmlns="http://www.w3.org/2000/svg" p-id="2455" xmlns:xlink="http://www.w3.org/1999/xlink" width="200" height="200"><path d="M1002.666667 981.333333a21.333333 21.333333 0 0 1-21.333334-21.333333v-64c0-94.106667-76.56-170.666667-170.666666-170.666667H384c-94.106667 0-170.666667 76.56-170.666667 170.666667v64a21.333333 21.333333 0 0 1-42.666666 0v-64a213.333333 213.333333 0 0 1 213.333333-213.333333h426.666667a213.333333 213.333333 0 0 1 213.333333 213.333333v64a21.333333 21.333333 0 0 1-21.333333 21.333333zM21.333333 938.666667a21.333333 21.333333 0 0 1-21.333333-21.333334v-53.333333a181.333333 181.333333 0 0 1 181.333333-181.333333h10.666667a21.333333 21.333333 0 0 1 0 42.666666h-10.666667c-76.46 0-138.666667 62.206667-138.666666 138.666667v53.333333a21.333333 21.333333 0 0 1-21.333334 21.333334z m298.666667-341.333334a192 192 0 0 1-48-377.946666 21.333333 21.333333 0 0 1 10.666667 41.333333A149.226667 149.226667 0 0 0 170.666667 405.333333c0 82.34 66.993333 149.333333 149.333333 149.333334a149.906667 149.906667 0 0 0 37.333333-4.666667 21.333333 21.333333 0 1 1 10.666667 41.333333 192.386667 192.386667 0 0 1-48 6z m533.333333-298.666666c0 141.386667-114.613333 256-256 256S341.333333 440.053333 341.333333 298.666667 455.946667 42.666667 597.333333 42.666667s256 114.613333 256 256zM597.333333 85.333333c-117.82 0-213.333333 95.513333-213.333333 213.333334s95.513333 213.333333 213.333333 213.333333 213.333333-95.513333 213.333334-213.333333-95.513333-213.333333-213.333334-213.333334z" fill="#5C5C66" p-id="2456"></path></svg>